<?xml version="1.0" encoding="UTF-8" standalone="no"?>
<!-- Created with Inkscape (http://www.inkscape.org/) -->

<svg
   width="20"
   height="20"
   viewBox="0 0 5.2916663 5.2916663"
   version="1.1"
   id="svg5"
   inkscape:version="1.1 (1:1.1+202105261517+ce6663b3b7)"
   sodipodi:docname="perroIcono.svg"
   xmlns:inkscape="http://www.inkscape.org/namespaces/inkscape"
   xmlns:sodipodi="http://sodipodi.sourceforge.net/DTD/sodipodi-0.dtd"
   xmlns="http://www.w3.org/2000/svg"
   xmlns:svg="http://www.w3.org/2000/svg">
  <sodipodi:namedview
     id="namedview7"
     pagecolor="#ffffff"
     bordercolor="#666666"
     borderopacity="1.0"
     inkscape:pageshadow="2"
     inkscape:pageopacity="0.0"
     inkscape:pagecheckerboard="0"
     inkscape:document-units="px"
     showgrid="false"
     inkscape:zoom="5.2208447"
     inkscape:cx="37.541817"
     inkscape:cy="43.766864"
     inkscape:window-width="1366"
     inkscape:window-height="703"
     inkscape:window-x="0"
     inkscape:window-y="40"
     inkscape:window-maximized="1"
     inkscape:current-layer="layer1"
     units="px"
     width="75px" />
  <defs
     id="defs2" />
  <g
     inkscape:label="Capa 1"
     inkscape:groupmode="layer"
     id="layer1">
    <path
       id="path505"
       style="opacity:0.266997;stroke:none;stroke-width:0.482468"
       d="M 4.1343341,1.0430215 A 0.16484379,0.17556781 0 0 1 3.969489,1.2185893 0.16484379,0.17556781 0 0 1 3.8046453,1.0430215 0.16484379,0.17556781 0 0 1 3.969489,0.86745367 0.16484379,0.17556781 0 0 1 4.1343341,1.0430215 Z" />
    <path
       style="fill:#000000;stroke-width:0.264583"
       id="path39"
       d="" />
    <path
       style="fill:#ffffff;stroke:none;stroke-width:0.0112582px;stroke-linecap:butt;stroke-linejoin:miter;stroke-opacity:1"
       d="M 2.8190857,2.1258171 4.264635,2.63486 c 0,0 0.00704,2.0341838 0.00568,2.1182336 -0.00135,0.084047 -0.046625,0.172183 -0.1271523,0.1651385 -0.08053,-0.00703 -0.6555101,-0.015671 -0.6555101,-0.015671 0,0 0.1030764,0 0,0 -0.1030764,0 -0.1292595,-0.056973 -0.1352157,-0.1609824 -0.00601,-0.1040069 -0.010213,-1.0692552 -0.010213,-1.0692552 l -1.5381001,-0.00214 c 0,0 -0.012289,0.9801255 -0.011563,1.064056 7.051e-4,0.083934 -0.1782616,0.1636613 -0.1273725,0.1636613 0.050891,0 -0.5494882,0.012073 -0.6359672,0.012073 -0.086476,0 -0.16265938,-0.079826 -0.16165978,-0.1627707 0.00103,-0.082947 0.023817,-1.9867534 0.017282,-2.0556752 C 0.87826332,2.6225939 0.26300229,2.436812 0.25782127,1.822588 0.25260127,1.208365 0.87053162,1.571777 0.89002922,1.827018 0.90952322,2.0822725 1.179462,2.1201648 1.179462,2.1201648 Z"
       id="path446" />
    <path
       style="fill:#ffffff;stroke:none;stroke-width:0.0112582px;stroke-linecap:butt;stroke-linejoin:miter;stroke-opacity:1"
       d="m 3.0392926,1.8836185 1.2443228,0.4372084 -0.00828,-0.3579563 c 0,0 0.00522,0.017474 0.309709,0.010893 0.3045152,-0.00658 0.634871,-0.2885977 0.6309679,-0.6123416 -0.00386,-0.3237428 0.011233,-0.3061821 0.011233,-0.3061821 0,0 -0.063453,-0.14292021 -0.1501947,-0.13975553 -0.086748,0.003176 -0.6408567,-0.0198119 -0.6408567,-0.0198119 0,0 -0.057552,-0.075503 -0.083866,-0.15364426 -0.026312,-0.0781469 -0.1813197,-0.17226808 -0.257372,-0.1607418 -0.076059,0.0115287 -0.5269245,0.005333 -0.5269245,0.005333 0,0 -0.1710518,-0.17394857 -0.2661909,-0.26141137 -0.095145,-0.0874628 -0.284752,-0.0380465 -0.2704092,0.11368574 0.014343,0.15172544 0.00783,1.44471202 0.00783,1.44471202 z"
       id="path448" />
    <circle
       style="opacity:1;fill:#0000ff;stroke:none;stroke-width:0.011276;stroke-miterlimit:4;stroke-dasharray:none"
       id="path982"
       cx="3.9532471"
       cy="1.0514466"
       r="0.14679931" />
    <path
       style="fill:#999999;stroke:none;stroke-width:0.0112582px;stroke-linecap:butt;stroke-linejoin:miter;stroke-opacity:1"
       d="M 3.0392926,1.8836185 4.2836154,2.3208269 4.2646302,2.63486 2.8190798,2.1258171 Z"
       id="path2164" />
  </g>
</svg>
