<?xml version="1.0" encoding="UTF-8" standalone="no"?>
<!-- Created with Inkscape (http://www.inkscape.org/) -->

<svg
   width="22"
   height="16"
   viewBox="0 0 5.820833 4.233333"
   version="1.1"
   id="svg5"
   inkscape:version="1.1 (1:1.1+202105261517+ce6663b3b7)"
   sodipodi:docname="tortugaIcono.svg"
   xmlns:inkscape="http://www.inkscape.org/namespaces/inkscape"
   xmlns:sodipodi="http://sodipodi.sourceforge.net/DTD/sodipodi-0.dtd"
   xmlns="http://www.w3.org/2000/svg"
   xmlns:svg="http://www.w3.org/2000/svg">
  <sodipodi:namedview
     id="namedview7"
     pagecolor="#ffffff"
     bordercolor="#666666"
     borderopacity="1.0"
     inkscape:pageshadow="2"
     inkscape:pageopacity="0.0"
     inkscape:pagecheckerboard="0"
     inkscape:document-units="px"
     showgrid="false"
     inkscape:zoom="5.2208447"
     inkscape:cx="6.703896"
     inkscape:cy="7.3742856"
     inkscape:window-width="1366"
     inkscape:window-height="703"
     inkscape:window-x="0"
     inkscape:window-y="40"
     inkscape:window-maximized="1"
     inkscape:current-layer="layer1"
     units="px"
     width="25px" />
  <defs
     id="defs2" />
  <g
     inkscape:label="Capa 1"
     inkscape:groupmode="layer"
     id="layer1">
    <path
       style="fill:#000000;stroke-width:0.264583"
       id="path39"
       d="" />
    <path
       style="fill:#ffffff;stroke:none;stroke-width:0.011214px;stroke-linecap:butt;stroke-linejoin:miter;stroke-opacity:1"
       d="m 0.90837931,2.2238208 c 0,0 2.44623149,-0.016151 2.63846719,-0.012058 0.192236,0.0041 0.3872638,-0.2233647 0.3341223,-0.4057815 C 3.8278269,1.6235644 3.3134915,0.3596437 2.213457,0.3496021 1.1134222,0.33955921 0.6529857,1.6166282 0.57826543,1.8341069 c -0.07472,0.2174783 0.0927749,0.3848846 0.33011388,0.3897139 z"
       id="path2907" />
    <path
       style="fill:#ffffff;stroke:none;stroke-width:0.011214px;stroke-linecap:butt;stroke-linejoin:miter;stroke-opacity:1"
       d="m 0.40861356,2.5176762 c 0,0 2.95264214,0.00132 3.15223394,-0.00179 0.1995917,-0.00312 0.3877097,-0.082036 0.498347,-0.2337851 C 4.1698317,2.1303518 4.197508,2.0416421 4.197508,1.8920859 4.197508,1.7425304 4.133956,1.4660082 4.187638,1.106931 4.241314,0.74785424 4.7440735,0.52273454 4.9972299,0.70837859 5.2503863,0.89402279 5.4579235,1.0551765 5.4579235,1.0551765 c 0,0 0.2218402,0.1878853 0.2331941,0.4653801 0.011354,0.2774947 -0.2152454,0.5418385 -0.5335927,0.5483238 -0.318347,0.00648 -0.3898392,-0.00568 -0.3898392,-0.00568 0,0 -0.013576,0.677855 -0.7714601,1.0233847 C 4.2843974,3.5538753 4.38478,3.6702045 4.4341626,3.860912 4.4743154,4.0159767 4.345911,4.1133591 4.345911,4.1133591 L 3.9812228,4.0934879 C 3.929207,4.0906545 3.8653396,4.0493133 3.8424006,3.9945086 3.8194618,3.9397036 3.4667432,3.3392242 3.4667432,3.3392242 c 0,0 -0.4328561,0.1441988 -0.7962864,0.1437035 C 2.3070263,3.4824414 1.8810924,3.3274325 1.8810924,3.3274325 1.7396052,3.5813546 1.518489,4.0112916 1.518489,4.0112916 c 0,0 -0.1099427,0.090228 -0.1624515,0.1015267 C 1.3035284,4.1241168 1.0091414,4.09886 1.0091414,4.09886 c 0,0 -0.20755898,-0.028748 -0.10783913,-0.2366041 C 1.0010225,3.6544002 1.3187727,3.0960006 1.3187727,3.0960006 c 0,0 -0.86677276,-0.1950335 -0.92876284,-0.2036226 C 0.32801978,2.8837905 0.24301157,2.8040172 0.25368766,2.7006618 0.26436387,2.5973059 0.3175166,2.5230224 0.40861444,2.5176692 Z"
       id="path2909"
       sodipodi:nodetypes="cssssscssccscsscsccscscsscc" />
    <ellipse
       style="opacity:1;fill:#0000ff;stroke:none;stroke-width:0.0112316;stroke-miterlimit:4;stroke-dasharray:none"
       id="path4024"
       cx="4.7548332"
       cy="1.2688196"
       rx="0.18013927"
       ry="0.17737825" />
  </g>
</svg>
